<?xml version="1.0" encoding="utf-8"?><svg xmlns="http://www.w3.org/2000/svg" xmlns:xlink="http://www.w3.org/1999/xlink"><symbol viewBox="0 0 62 53" id="aotd"><path d="M5.6 31.6s0-2.6-1.5-3.9S0 26.6 0 26.6s0 2.6 1.5 3.9 4.1 1.1 4.1 1.1zM5 28.9s2.5.2 4-1.3 1.3-4 1.3-4-2.5-.2-4 1.3c-1.4 1.4-1.3 4-1.3 4zm-.3-2.3s.5-2.5-.7-4.2C2.8 20.7.2 20.6.2 20.6s-.5 2.5.7 4.2 3.8 1.8 3.8 1.8zm.1-5.2s1-2.4.1-4.2c-.9-1.9-3.4-2.5-3.4-2.5s-1 2.4-.1 4.2c.9 1.8 3.4 2.5 3.4 2.5zm1-5s1.5-2.1 1-4.1S4 9.1 4 9.1s-1.5 2.1-1 4.1 2.8 3.2 2.8 3.2zm2.1-4.7s1.8-1.8 1.7-3.8c-.1-2.2-2.1-3.7-2.1-3.7S5.7 5.9 5.8 8s2.1 3.7 2.1 3.7zm3-4.3S13 6 13.3 4s-1.4-4-1.4-4-2.1 1.4-2.4 3.4 1.4 4 1.4 4zm2-.5s2.5.3 4.1-1S18.6 2 18.6 2s-2.5-.3-4.1 1-1.6 3.9-1.6 3.9zm9.9 42.6s-2.1-1.5-4.1-1-3.2 2.8-3.2 2.8 2.1 1.5 4.1 1 3.2-2.8 3.2-2.8zM18 47.4s-1.8-1.8-3.8-1.7-3.6 2.1-3.6 2.1 1.8 1.8 3.8 1.7 3.6-2.1 3.6-2.1zm-4.2-2.9s-1.4-2.1-3.4-2.4-4 1.4-4 1.4 1.4 2.1 3.4 2.4 4-1.4 4-1.4zm-3.6-3.7s-.9-2.4-2.9-3.1-4.2.5-4.2.5.9 2.4 2.9 3.1c2 .7 4.2-.5 4.2-.5zm-2.7-4.3s-.4-2.5-2.2-3.6c-1.9-1.1-4.3-.3-4.3-.3s.4 2.5 2.2 3.6 4.3.3 4.3.3zM4.7 23.8s2.5.7 4.2-.5 2-3.7 2-3.7-2.5-.7-4.2.5c-1.7 1.1-2 3.7-2 3.7zm.6-5.1s2.3 1.1 4.2.3 2.7-3.2 2.7-3.2-2.3-1.1-4.2-.3c-1.9.8-2.7 3.2-2.7 3.2zm1.6-4.9s2 1.6 4.1 1.2 3.3-2.6 3.3-2.6-2-1.6-4.1-1.2-3.3 2.6-3.3 2.6zm2.6-4.5s1.7 1.9 3.8 1.9S17 9.3 17 9.3s-1.7-1.9-3.8-1.9-3.7 1.9-3.7 1.9zm10.6 39.1s1.6-2 1.2-4.1c-.4-2-2.6-3.3-2.6-3.3s-1.6 2-1.2 4.1c.4 2 2.6 3.3 2.6 3.3zm-4.4-2.5s1.9-1.7 1.9-3.8-1.9-3.8-1.9-3.8-1.9 1.7-1.9 3.8 1.9 3.8 1.9 3.8zm-3.9-3.4s2.2-1.3 2.6-3.3-1.2-4.1-1.2-4.1-2.2 1.3-2.6 3.3c-.3 2.1 1.2 4.1 1.2 4.1zm-3.1-4.1s2.4-.8 3.2-2.7-.3-4.2-.3-4.2-2.4.8-3.2 2.7.3 4.2.3 4.2zm-2.3-4.6s2.5-.3 3.7-2c1.2-1.7.5-4.2.5-4.2s-2.5.3-3.7 2-.5 4.2-.5 4.2zm49.5-2.2s0-2.6 1.5-3.9 4.1-1.1 4.1-1.1 0 2.6-1.5 3.9-4.1 1.1-4.1 1.1zm.5-2.7s-2.5.2-4-1.3-1.3-4-1.3-4 2.5-.2 4 1.3c1.5 1.4 1.3 4 1.3 4zm.4-2.3s-.5-2.5.7-4.2c1.2-1.7 3.8-1.8 3.8-1.8s.5 2.5-.7 4.2-3.8 1.8-3.8 1.8zm-.2-5.2s-1-2.4-.1-4.2c.9-1.9 3.4-2.5 3.4-2.5s1 2.4.1 4.2c-.9 1.8-3.4 2.5-3.4 2.5zm-1-5s-1.5-2.1-1-4.1 2.8-3.2 2.8-3.2 1.5 2.1 1 4.1c-.5 2-2.8 3.2-2.8 3.2zm-2.1-4.7s-1.8-1.8-1.7-3.8c.1-2.1 2.1-3.6 2.1-3.6s1.8 1.8 1.7 3.8-2.1 3.6-2.1 3.6zm-2.9-4.3S48.5 6 48.2 4c-.3-2.1 1.4-4 1.4-4s2.1 1.4 2.4 3.4-1.4 4-1.4 4zm-2.1-.5s-2.5.3-4.1-1S42.8 2 42.8 2s2.5-.3 4.1 1 1.6 3.9 1.6 3.9zm-9.8 42.6s2.1-1.5 4.1-1 3.2 2.8 3.2 2.8-2.1 1.5-4.1 1c-2.1-.5-3.2-2.8-3.2-2.8zm4.7-2.1s1.8-1.8 3.8-1.7 3.6 2.1 3.6 2.1-1.8 1.8-3.8 1.7-3.6-2.1-3.6-2.1zm4.2-2.9s1.4-2.1 3.4-2.4 4 1.4 4 1.4-1.4 2.1-3.4 2.4-4-1.4-4-1.4zm3.6-3.7s.9-2.4 2.9-3.1c1.9-.7 4.2.5 4.2.5s-.9 2.4-2.9 3.1c-2 .7-4.2-.5-4.2-.5zm2.8-4.3s.4-2.5 2.2-3.6c1.8-1.1 4.2-.3 4.2-.3s-.4 2.5-2.2 3.6-4.2.3-4.2.3zm2.8-12.7s-2.5.7-4.2-.5-2-3.7-2-3.7 2.5-.7 4.2.5c1.6 1.1 2 3.7 2 3.7zm-.7-5.1s-2.3 1.1-4.2.3-2.7-3.2-2.7-3.2 2.3-1.1 4.2-.3c1.9.8 2.7 3.2 2.7 3.2zm-1.6-4.9s-2 1.6-4.1 1.2-3.3-2.6-3.3-2.6 2-1.6 4.1-1.2c2 .4 3.3 2.6 3.3 2.6zM52 9.3s-1.7 1.9-3.8 1.9-3.8-1.9-3.8-1.9 1.7-1.9 3.8-1.9S52 9.3 52 9.3zM41.3 48.4s-1.6-2-1.2-4.1c.4-2 2.6-3.3 2.6-3.3s1.6 2 1.2 4.1c-.4 2-2.6 3.3-2.6 3.3zm4.4-2.5s-1.9-1.7-1.9-3.8 1.9-3.8 1.9-3.8 1.9 1.7 1.9 3.8-1.9 3.8-1.9 3.8zm3.9-3.4s-2.2-1.3-2.6-3.3c-.4-2 1.2-4.1 1.2-4.1s2.2 1.3 2.6 3.3c.4 2.1-1.2 4.1-1.2 4.1zm3.2-4.1s-2.4-.8-3.2-2.7.3-4.2.3-4.2 2.4.8 3.2 2.7-.3 4.2-.3 4.2zm2.3-4.6s-2.5-.3-3.7-2c-1.2-1.7-.5-4.2-.5-4.2s2.5.3 3.7 2 .5 4.2.5 4.2zM22.4 19.1l2.2-5.2H26l2.2 5.2h-1.5l-.4-.9h-2l-.4.9h-1.5zm2.3-2h1.1l-.6-1.5-.5 1.5zm4 2V14h2.2c.7 0 1.2.2 1.5.5.4.3.6.8.6 1.3 0 .4-.1.7-.3 1-.2.3-.4.5-.8.6-.3.1-.7.2-1.1.2h-.7v1.5h-1.4zm1.4-2.6h.7c.3 0 .4-.1.6-.2.1-.1.2-.3.2-.5s-.1-.4-.2-.5-.3-.2-.6-.2h-.7v1.4zm3.6 2.6V14h2.2c.7 0 1.2.2 1.5.5.4.3.6.8.6 1.3 0 .4-.1.7-.3 1-.2.3-.4.5-.8.6-.3.1-.7.2-1.1.2h-.7v1.5h-1.4zm1.4-2.6h.7c.3 0 .4-.1.6-.2.1-.1.2-.3.2-.5s-.1-.4-.2-.5-.3-.2-.6-.2h-.7v1.4zm-18.8 8.3c0-.4.1-.7.2-1 .1-.3.3-.6.6-.8.2-.2.5-.4.9-.6s.7-.2 1.1-.2c.4 0 .8.1 1.1.2.3.1.6.3.9.6s.4.5.6.8.2.7.2 1c0 .4-.1.7-.2 1-.1.3-.3.6-.6.8s-.5.4-.9.6c-.3.1-.7.2-1.1.2-.5 0-1-.1-1.4-.4-.4-.2-.7-.6-1-1-.3-.2-.4-.7-.4-1.2zm1.4 0c0 .4.1.7.4 1s.6.4.9.4c.4 0 .7-.1.9-.4s.4-.6.4-1-.1-.7-.4-1c-.2-.3-.6-.4-.9-.4-.4 0-.7.1-.9.4-.2.3-.4.6-.4 1zm4.9 2.6v-5.1h4.1v1.2H24v.9h2.4v1.2H24v1.8h-1.4zm6.6-3.9v-1.2h4.5v1.2h-1.5v3.9h-1.4v-3.9h-1.6zm5.2 3.9v-5.1h1.4v1.9h1.8v-1.9H39v5.1h-1.4v-1.9h-1.8v1.9h-1.4zm5.7 0v-5.1h4.1v1.2h-2.7v.8h2.4v1.1h-2.4v.8h2.7v1.2h-4.1zm-17.2 8.3v-5.1h2c.4 0 .9.1 1.2.2.4.1.7.3.9.5.2.2.4.5.6.8.1.3.2.7.2 1 0 .4-.1.7-.2 1-.1.3-.3.6-.6.8-.2.2-.6.4-.9.5s-.8.2-1.2.2h-2zm1.4-1.2h.6c.4 0 .8-.1 1-.3.3-.2.4-.6.4-1s-.1-.7-.4-1c-.3-.2-.6-.3-1-.3h-.6v2.6zm3.5 1.2l2.2-5.2h1.4l2.2 5.2H32l-.4-.9h-2l-.4.9h-1.4zm2.2-2h1.1l-.6-1.5-.5 1.5zm2.8-3.1h1.6l1 1.9 1.1-1.9h1.6l-1.9 3.2v1.9h-1.4v-1.9l-2-3.2z"/></symbol><symbol viewBox="0 0 136.5 162" id="apple"><path d="M133.4 126.1c-2.4 5.7-5.4 10.9-8.7 15.7-4.6 6.5-8.3 11.1-11.2 13.6-4.5 4.1-9.3 6.2-14.4 6.4-3.7 0-8.1-1.1-13.3-3.2-5.2-2.1-10-3.2-14.3-3.2-4.6 0-9.5 1.1-14.7 3.2-5.3 2.1-9.5 3.2-12.7 3.4-4.9.2-9.8-2-14.7-6.5-3.1-2.7-7-7.4-11.7-14-5-7.1-9.2-15.3-12.4-24.7C1.8 106.7.1 96.9.1 87.4c0-10.9 2.3-20.2 7-28.1C10.8 53 15.7 48 21.9 44.4c6.2-3.6 12.8-5.5 19.9-5.6 3.9 0 9 1.2 15.4 3.6 6.4 2.4 10.4 3.6 12.2 3.6 1.3 0 5.9-1.4 13.6-4.2 7.3-2.6 13.4-3.7 18.4-3.3 13.6 1.1 23.9 6.5 30.7 16.2-12.2 7.4-18.2 17.7-18.1 31 .1 10.3 3.9 18.9 11.2 25.8 3.3 3.2 7.1 5.6 11.2 7.4-1.1 2.4-2 4.9-3 7.2zm-31.3-123c0 8.1-3 15.7-8.9 22.7-7.1 8.3-15.7 13.1-25.1 12.4-.1-1-.2-2-.2-3.1 0-7.8 3.4-16.1 9.4-22.9 3-3.4 6.8-6.3 11.4-8.6 4.6-2.3 9-3.5 13.1-3.7.3 1.1.3 2.2.3 3.2z"/></symbol><symbol viewBox="0 0 12 16" id="arrow-down"><path d="M.4 8.9l1.2-1 3.7 4.4V.4h1.5v11.9l3.6-4.4 1.2 1L6 15.6z"/></symbol><symbol viewBox="0 0 16 12" id="arrow-left"><path d="M6.7.4l1 1.2-4.5 3.7h12v1.5h-12l4.5 3.6-1 1.2L0 6z"/></symbol><symbol viewBox="0 0 16 12" id="arrow-right"><path d="M8.5.4l-1 1.2 4.4 3.7H0v1.5h11.9l-4.4 3.6 1 1.2L15.2 6z"/></symbol><symbol viewBox="0 0 12 16" id="arrow-up"><path d="M.4 7.1l1.2 1 3.7-4.4v11.9h1.5V3.7l3.6 4.4 1.2-1L6 .4z"/></symbol><symbol viewBox="0 0 21 20" id="bell"><path d="M19.2 14.9h-2.1v-7C17 3.8 13.8.5 9.8.5S2.6 3.8 2.5 7.8v7.1H.8c-.4 0-.8.3-.8.7 0 .4.3.7.8.7h5.7c.2 1.7 1.6 3.1 3.5 3.1s3.3-1.4 3.5-3.1h5.9c.4 0 .8-.3.8-.7-.2-.3-.5-.7-1-.7zm-15.1-7C4.1 4.6 6.7 2 9.9 2s5.7 2.7 5.8 5.9v7H4.1v-7zM9.9 18c-1 0-1.8-.7-1.9-1.6h3.9c-.2.9-1 1.6-2 1.6z"/></symbol><symbol viewBox="0 0 18 18" id="calendar"><path d="M17.5 2H15V.5c0-.3-.2-.5-.5-.5h-3c-.3 0-.5.2-.5.5V2H7V.5c0-.3-.2-.5-.5-.5h-3c-.3 0-.5.2-.5.5V2H.5c-.3 0-.5.2-.5.5v15c0 .3.2.5.5.5h17c.3 0 .5-.2.5-.5v-15c0-.3-.2-.5-.5-.5zM12 1h2v3h-2V1zM4 1h2v3H4V1zM3 3v1.5c0 .3.2.5.5.5h3c.3 0 .5-.2.5-.5V3h4v1.5c0 .3.2.5.5.5h3c.3 0 .5-.2.5-.5V3h2v3H1V3h2zM1 17V7h16v10H1z"/></symbol><symbol viewBox="0 0 13 6" id="caret-down"><path d="M.5.5l6 5 6-5z"/></symbol><symbol viewBox="0 0 6 13" id="caret-left"><path d="M5.5.5l-5 6 5 6z"/></symbol><symbol viewBox="0 0 6 13" id="caret-right"><path d="M.5 12.5l5-6-5-6z"/></symbol><symbol viewBox="0 0 13 6" id="caret-up"><path d="M12.5 5.5l-6-5-6 5z"/></symbol><symbol viewBox="0 0 24 18" id="check"><path d="M8.7 17.2l-8-8 1.5-1.4 6.5 6.5L22.5.6 23.9 2z"/></symbol><symbol viewBox="0 0 11 8" id="check-bold"><path d="M4.4 7.8l-3.9-4 1.4-1.4 2.5 2.5L9.1.3l1.4 1.4z"/></symbol><symbol viewBox="0 0 24 16" id="check-thin"><path d="M8.8 16L.3 7.5l1.1-1 7.4 7.4L22.6 0l1.1 1.1z"/></symbol><symbol viewBox="0 0 14 8" id="chevron-down"><path d="M7.1 7.8L.6 1.2l1.1-1 5.4 5.4L12.4.2l1.2 1z"/></symbol><symbol viewBox="0 0 8 14" id="chevron-left"><path d="M.3 7L6.8.5l1 1.1L2.4 7l5.4 5.4-1 1.1z"/></symbol><symbol viewBox="0 0 8 14" id="chevron-right"><path d="M1.3 13.5l-1-1.1L5.7 7 .3 1.6l1-1.1L7.8 7z"/></symbol><symbol viewBox="0 0 14 8" id="chevron-up"><path d="M7.1.2l6.5 6.6-1.2 1-5.3-5.4-5.4 5.4-1.1-1z"/></symbol><symbol viewBox="0 0 16 16" id="clock"><path d="M9.7 11.6L7 9.6V5h2v3.6l1.9 1.4z"/><path d="M8 16c-4.4 0-8-3.6-8-8s3.6-8 8-8 8 3.6 8 8-3.6 8-8 8zM8 2C4.7 2 2 4.7 2 8s2.7 6 6 6 6-2.7 6-6-2.7-6-6-6z"/></symbol><symbol viewBox="0 0 16 16" id="clone"><path d="M16 11.8h-2.8v-1H15V1H5.2v1.8h-1V0H16z"/><path d="M11 5v10H1V5h10m1-1H0v12h12V4z"/></symbol><symbol id="cog" viewBox="0 0 19 19"><style>.avst0{fill:#0f0f0f}</style><title>Combined Shape</title><path id="avCombined-Shape" class="avst0" d="M8.7 16.9l-1.6 1.8c-.4-.1-.7-.2-1.1-.3L5.8 16c-.5-.3-.9-.6-1.3-1l-2.3.5c-.2-.3-.5-.6-.7-.9l1.2-2c-.2-.5-.4-1-.5-1.5l-2.2-1v-.6-.6l2.2-1c.1-.5.3-1.1.5-1.5l-1.2-2c.2-.3.4-.6.7-.9l2.3.5c.4-.4.8-.7 1.3-1L6 .7c.3-.1.7-.3 1.1-.3l1.6 1.8h1.6L11.9.4c.4.1.7.2 1.1.3l.2 2.3c.5.3.9.6 1.3 1l2.3-.5c.2.3.5.6.7.9l-1.2 2c.2.5.4 1 .5 1.5l2.2 1v1.2l-2.2 1c-.1.5-.3 1.1-.5 1.5l1.2 2c-.2.3-.4.6-.7.9l-2.3-.5c-.4.4-.8.7-1.3 1l-.2 2.3c-.3.1-.7.3-1.1.3l-1.6-1.8h-.8c-.3.1-.5.1-.8.1zm.8-3.3c2.2 0 4.1-1.8 4.1-4.1s-1.8-4.1-4.1-4.1-4.1 1.9-4.1 4.1 1.9 4.1 4.1 4.1z"/></symbol><symbol viewBox="0 0 21 19" id="cup"><path d="M20.2 1.1c-.1-.2-.3-.4-.5-.4L16.5 0c-.3-.1-.6 0-.8.3-.2.2-.2.5-.1.7h-.2l-.3-1H5.6l-.4 1h-.1c.1-.2 0-.5-.1-.7-.3-.3-.6-.4-.9-.3L1.3 1c-.2.1-.4.2-.5.4 0 .1-1.4 3.2.3 5.6 1.5 2.3 5.1 3.7 5.3 3.7h.4c.6.8 1.3 1.4 2.1 2l.5.3-.4 4.8h-.4c-.3 0-.6.3-.6.6v.6h4.8v-.6c0-.3-.3-.6-.6-.6h-.4l-.5-4.8.5-.3c.8-.5 1.5-1.2 2.1-2h.1c.1 0 .2 0 .3-.1.2-.1 4-1.6 5.5-3.9 1.8-2.3.4-5.4.4-5.6zM2.4 6.2c-1-1.4-.6-3.2-.3-3.9l1-.4c0 .1 0 .1.1.1.1.2.4.4.6.4h1c-.4 2-.1 4.3.8 6.2-1.1-.4-2.5-1.3-3.2-2.4zm16.2-.3C17.9 7 16.3 8 15.2 8.6c.9-1.9 1.2-4.2.8-6.2h1c.3 0 .5-.1.6-.4.1-.1.1-.2.1-.3L19 2c.2.8.6 2.6-.4 3.9z"/></symbol><symbol viewBox="0 0 4 18" id="dots"><circle cx="2" cy="9" r="2"/><circle cx="2" cy="2" r="2"/><circle cx="2" cy="16" r="2"/></symbol><symbol viewBox="0 0 20 20" id="edit"><path d="M18.3 19H.3V1h11v2h-9v14h14V8h2z"/><path d="M6.5 10.7L18.1 0l1.4 1.3L7.9 12z"/></symbol><symbol viewBox="0 0 38 26" id="envelope"><path d="M35 0H3C1.3 0 0 1.3 0 3v20c0 1.7 1.3 3 3 3h32c1.7 0 3-1.3 3-3V3c0-1.7-1.3-3-3-3zm-.5 2L19.1 14.6c-.1.1-.3.1-.3 0L2.7 2.1c.1-.1.2-.1.3-.1h31.5zm.5 22H3c-.6 0-1-.4-1-1V4.1l15.6 12.1c.4.3.9.5 1.4.5.5 0 1-.2 1.4-.5L36 3.4V23c0 .6-.4 1-1 1z"/></symbol><symbol viewBox="0 0 9 15" id="facebook"><path d="M2.5 15V8.1H.3V5.7h2.2V3.4C2.5 1.7 3.6 0 6.4 0c1.1 0 2.1.3 2.1.3L8.4 3H6.9c-.6 0-1.1.5-1.1 1v1.8h3l-.4 2.3H5.8V15H2.5z"/></symbol><symbol viewBox="0 0 9 9.6" id="google-play"><path d="M8.7 5.2s-.7.4-1.8 1L5.5 4.8l1.4-1.4c1 .6 1.8 1 1.8 1s.3.2.3.4c-.1.3-.3.4-.3.4zm-3.4-.6L.7 0c.1 0 .2.1.4.1.6.3 3.5 2 5.6 3.1L5.3 4.6zm-5.1 5C0 9.4 0 9.1 0 9.1V.6S0 .3.2.1L5 4.9.2 9.6zM5.3 5l1.3 1.3C4.5 7.5 1.6 9.1 1 9.4c-.2.1-.3.1-.4.1L5.3 5z"/></symbol><symbol viewBox="0 0 22 14" id="google-plus"><path d="M.5 6.7C.6 3.3 3.7.4 7 .5c1.6-.1 3.1.6 4.4 1.6-.5.6-1.1 1.2-1.7 1.7-1.5-1-3.6-1.3-5.1-.1-2.1 1.5-2.2 4.9-.2 6.5 2 1.8 5.7.9 6.3-1.9H7V6.1h6.2c.1 1.7-.1 3.6-1.2 5-1.6 2.3-4.9 2.9-7.4 2C2.1 12.1.3 9.4.5 6.7zm17.3-2.2h1.9v1.9h1.9v1.9h-1.9v1.9h-1.9V8.3h-1.9v-2h1.9V4.5z"/></symbol><symbol viewBox="0 0 17 15" id="heart"><path d="M12.2 1.5c1.8 0 3.1 1.3 3.1 3 0 2.4-2.7 4.7-6.7 8.3l-.2.2-.3-.2c-4-3.5-6.7-5.9-6.7-8.3 0-1.7 1.4-3 3.1-3 1 0 2 .4 2.7 1.2L8.4 4l1.1-1.3c.7-.8 1.7-1.2 2.7-1.2m0-1.5c-1.5 0-2.9.7-3.8 1.7C7.5.7 6.1 0 4.6 0 2 0 0 2 0 4.5c0 3.1 2.9 5.6 7.2 9.4L8.4 15l1.2-1.1c4.3-3.8 7.2-6.3 7.2-9.4.1-2.5-2-4.5-4.6-4.5z"/></symbol><symbol viewBox="0 0 20 20" id="home"><path class="best0" d="M20 20H0V9.6L10 .7l10 8.9V20zM2 18h16v-7.6l-8-7.1-8 7.1V18z"/></symbol><symbol viewBox="0 0 24 24" id="link"><path d="M11.2 18.2l-3.2 3c-.5.6-1.1 1-1.9 1.1-1.2.3-2.5-.1-3.4-1-.7-.7-1.1-1.7-1.1-2.8 0-1 .4-2 1.1-2.8l5.1-5.2c.9-1 2.4-1.4 3.7-1 .4.1.8.3 1.1.5.5.2.9.6 1.1 1.1.2.3.5.4.8.2.1 0 .1-.1.2-.1.3-.2.4-.5.2-.8 0-.1-.1-.1-.1-.1-.4-.6-1-1.2-1.6-1.6-.4-.3-.9-.5-1.4-.6-1.8-.5-3.7.1-5 1.4L1.5 15c-2 2.1-2 5.3 0 7.4 1 1 2.3 1.6 3.7 1.6 1.4 0 2.7-.6 3.7-1.6l3.1-3.2c.9-.8-.3-1.7-.8-1zM22.5 1.6c-1-1-2.3-1.6-3.7-1.6-1.4 0-2.7.6-3.7 1.6L12 4.8c-.8.8.4 1.7.9 1l3.2-3c.5-.6 1.1-1 1.9-1.1 1.2-.3 2.5.1 3.4 1 .7.7 1.1 1.7 1.1 2.8 0 1-.4 2-1.1 2.8l-5.1 5.2c-.9 1-2.4 1.4-3.7 1-.4-.1-.8-.3-1.1-.5-.5-.3-.8-.6-1.1-1.1-.2-.3-.5-.4-.8-.2-.1 0-.1.1-.2.1-.3.2-.4.5-.2.8 0 .1.1.1.1.1.4.6 1 1.2 1.6 1.6.4.3.9.5 1.4.6 1.8.5 3.7-.1 5-1.4L22.7 9c1.8-2.2 1.7-5.4-.2-7.4z"/></symbol><symbol viewBox="0 0 17 61" id="long-arrow-down"><path d="M8 .5v57.9l-6.5-7.7-.7.6 7.7 9.2 7.7-9.2-.7-.6L9 58.4V.5z"/></symbol><symbol viewBox="0 0 61 17" id="long-arrow-left"><path d="M60.5 8H2.6l7.7-6.5-.6-.7L.5 8.5l9.2 7.7.6-.7L2.6 9h57.9z"/></symbol><symbol viewBox="0 0 61 17" id="long-arrow-right"><path d="M.5 9h57.9l-7.7 6.5.6.7 9.2-7.7L51.3.8l-.6.7L58.4 8H.5z"/></symbol><symbol viewBox="0 0 17 61" id="long-arrow-up"><path d="M9 60.5V2.6l6.5 7.7.7-.6L8.5.5.8 9.7l.7.6L8 2.6v57.9z"/></symbol><symbol viewBox="0 0 23 21" id="nominee"><path d="M17 2c.3.3.8.5.8.5s.4-.8.2-1.5-1.1-1-1.1-1-.4.8-.2 1.5c-.1-.1-.2-.2-.4-.3-.7-.3-1.5 0-1.5 0s.2.9.9 1.2c.7.3 1.5 0 1.5 0s-.1-.1-.2-.4zM6 2c-.4.4-.8.5-.8.5S4.8 1.7 5 1s1.1-1 1.1-1 .4.8.2 1.5c.1-.1.2-.2.4-.3.7-.3 1.5 0 1.5 0s-.2 1-.9 1.3-1.5 0-1.5 0 .1-.2.2-.5zm2.8 6.2h1.7c0-.5.4-.8.9-.8s.8.3.8.7c0 .4-.2.6-.9 1s-1 .8-.9 1.7v.2H12v-.2c0-.5.2-.7.9-1.1.8-.4 1.1-.9 1.1-1.6 0-1.2-1-2-2.7-2-1.5 0-2.5.8-2.5 2.1zm2.5 5.1c.7 0 1.1-.3 1.1-.9 0-.6-.4-.9-1.1-.9s-1.1.3-1.1.9c0 .6.4.9 1.1.9zM2 12.5s0-.9-.5-1.4-1.5-.4-1.5-.4 0 .9.5 1.4 1.5.4 1.5.4zm-.2-1s.9.1 1.4-.5c.5-.5.5-1.4.5-1.4s-.9-.1-1.4.5-.5 1.4-.5 1.4zm-.1-.8s.2-.9-.3-1.5C1 8.6.1 8.5.1 8.5s-.2.9.2 1.5c.5.6 1.4.7 1.4.7zm0-1.9s.4-.8 0-1.5S.5 6.4.5 6.4s-.4.8 0 1.5 1.2.9 1.2.9zM2.1 7s.5-.8.3-1.5-1-1.1-1-1.1-.5.8-.3 1.5 1 1.1 1 1.1zm.7-1.7s.7-.6.6-1.4c0-.7-.8-1.3-.8-1.3S2 3.3 2.1 4c0 .8.7 1.3.7 1.3zm1.1-1.5s.8-.5.9-1.2c.1-.7-.5-1.4-.5-1.4s-.8.5-.9 1.2.5 1.4.5 1.4zM10 19.3s-.8-.4-1.5-.1-.9 1.2-.9 1.2.8.4 1.5.1.9-1.2.9-1.2zm-1.8-.4s-.8-.5-1.5-.3-1.1 1-1.1 1 .8.5 1.5.3 1.1-1 1.1-1zm-1.7-.7s-.6-.7-1.4-.6c-.7 0-1.3.8-1.3.8s.6.6 1.4.6c.7-.1 1.3-.8 1.3-.8zM5 17.1s-.5-.8-1.2-.9c-.7-.1-1.4.5-1.4.5s.5.8 1.2.9c.7.1 1.4-.5 1.4-.5zm-1.3-1.3s-.3-.9-1-1.1-1.5.2-1.5.2.3.9 1 1.1 1.5-.2 1.5-.2zm-1-1.5s-.2-.9-.8-1.3-1.5-.1-1.5-.1.2.9.8 1.3c.6.3 1.5.1 1.5.1zm-1-4.6s.9.2 1.5-.2.7-1.3.7-1.3-.9-.2-1.5.2-.7 1.3-.7 1.3zm.2-1.8s.8.4 1.5.1c.7-.3 1-1.2 1-1.2s-.8-.4-1.5-.1-1 1.2-1 1.2zm.6-1.8s.7.6 1.5.4 1.2-.9 1.2-.9-.8-.6-1.5-.4-1.2.9-1.2.9zm.9-1.6s.6.7 1.3.7S6 4.5 6 4.5s-.5-.7-1.2-.7-1.4.7-1.4.7zm1.2-1.4s.5.8 1.2.9 1.5-.4 1.5-.4-.5-.8-1.2-.9c-.8-.1-1.5.4-1.5.4zm4.4 16s.4-.8.1-1.5c-.3-.7-1.2-1-1.2-1s-.4.8-.1 1.5 1.2 1 1.2 1zm-1.8-.6s.6-.7.4-1.5-.9-1.2-.9-1.2-.6.7-.4 1.5c.2.8.9 1.2.9 1.2zm-1.5-.9s.7-.6.7-1.3c0-.7-.7-1.3-.7-1.3s-.7.5-.7 1.3c0 .7.7 1.3.7 1.3zm-1.4-1.2s.8-.5.9-1.2-.4-1.5-.4-1.5-.8.5-1 1.3c-.1.7.5 1.4.5 1.4zM3.1 15s.9-.3 1.2-1c.3-.7-.1-1.5-.1-1.5s-.9.3-1.2 1c-.3.6.1 1.5.1 1.5zm-.8-1.7s.9-.1 1.3-.7.2-1.5.2-1.5-.9.1-1.3.7-.2 1.5-.2 1.5zm18.7-.8s0-.9.5-1.4 1.5-.4 1.5-.4 0 .9-.5 1.4c-.6.5-1.5.4-1.5.4zm.2-1s-.9.1-1.4-.5c-.5-.5-.5-1.4-.5-1.4s.9-.1 1.4.5.5 1.4.5 1.4zm.1-.8s-.2-.9.3-1.5c.4-.6 1.4-.7 1.4-.7s.2.9-.3 1.5-1.4.7-1.4.7zm0-1.9s-.4-.8 0-1.5 1.2-.9 1.2-.9.4.8 0 1.5-1.2.9-1.2.9zM20.9 7s-.5-.8-.3-1.5 1-1.1 1-1.1.5.8.3 1.5-1 1.1-1 1.1zm-.7-1.7s-.7-.6-.6-1.4c0-.7.8-1.3.8-1.3s.6.7.5 1.4c0 .8-.7 1.3-.7 1.3zm-1.1-1.5s-.8-.5-.9-1.2c-.1-.7.5-1.4.5-1.4s.8.5.9 1.2c.1.7-.5 1.4-.5 1.4zM13 19.3s.8-.4 1.5-.1.9 1.2.9 1.2-.8.4-1.5.1-.9-1.2-.9-1.2zm1.8-.4s.8-.5 1.5-.3 1.1 1 1.1 1-.8.5-1.5.3-1.1-1-1.1-1zm1.7-.7s.6-.7 1.4-.6c.7 0 1.3.8 1.3.8s-.6.6-1.4.6c-.7-.1-1.3-.8-1.3-.8zm1.5-1.1s.5-.8 1.2-.9c.7-.1 1.4.5 1.4.5s-.5.8-1.2.9c-.7.1-1.4-.5-1.4-.5zm1.3-1.3s.3-.9 1-1.1c.7-.3 1.5.2 1.5.2s-.3.9-1 1.1c-.7.3-1.5-.2-1.5-.2zm1-1.5s.2-.9.8-1.3 1.5-.1 1.5-.1-.2.9-.8 1.3c-.6.3-1.5.1-1.5.1zm1-4.6s-.9.2-1.5-.2-.7-1.3-.7-1.3.9-.2 1.5.2.7 1.3.7 1.3zm-.2-1.8s-.8.4-1.5.1c-.7-.3-1-1.2-1-1.2s.8-.4 1.5-.1c.7.3 1 1.2 1 1.2zm-.6-1.8s-.7.6-1.5.4c-.7-.1-1.2-.9-1.2-.9s.7-.6 1.5-.4c.7.1 1.2.9 1.2.9zm-.9-1.6s-.6.7-1.3.7-1.3-.7-1.3-.7.6-.7 1.3-.7 1.3.7 1.3.7zm-1.2-1.4s-.5.8-1.2.9c-.7.1-1.5-.4-1.5-.4s.5-.8 1.2-.9c.8-.1 1.5.4 1.5.4zm-4.4 16s-.4-.8-.1-1.5c.3-.7 1.2-1 1.2-1s.4.8.1 1.5c-.3.7-1.2 1-1.2 1zm1.8-.6s-.6-.7-.4-1.5.9-1.2.9-1.2.6.7.4 1.5c-.2.8-.9 1.2-.9 1.2zm1.5-.9s-.7-.6-.7-1.3c0-.7.7-1.3.7-1.3s.7.6.7 1.3c0 .7-.7 1.3-.7 1.3zm1.4-1.2s-.8-.5-.9-1.2c-.1-.7.4-1.5.4-1.5s.8.5.9 1.2c.2.8-.4 1.5-.4 1.5zm1.2-1.4s-.9-.3-1.2-1c-.3-.7.1-1.5.1-1.5s.9.3 1.2 1c.3.6-.1 1.5-.1 1.5zm.8-1.7s-.9-.1-1.3-.7-.2-1.5-.2-1.5.9.1 1.3.7.2 1.5.2 1.5z"/></symbol><symbol viewBox="0 0 16 16" id="pencil"><path d="M14.9 2.1l-1-1c-.8-.8-2.2-.8-3 0l-8.9 9c-.1.1-.1.1-.1.2L.6 14.9c0 .2 0 .3.1.5.1.1.2.1.3.1h.1l4.6-1.3c.1 0 .1-.1.2-.1l8.9-8.9c.4-.4.6-.9.6-1.5.1-.7-.1-1.2-.5-1.6zM5.4 13.3l-3.7 1.1 1.1-3.7L10 3.5l2.7 2.7-7.3 7.1zm8.8-8.9l-1 1-2.7-2.7 1-1c.5-.5 1.2-.5 1.7 0l1 1c.2.2.3.5.3.8.1.4-.1.7-.3.9z"/></symbol><symbol viewBox="0 0 12 12" id="plus"><path class="bmst0" d="M12 5H7V0H5v5H0v2h5v5h2V7h5z"/></symbol><symbol viewBox="0 0 13 14" id="refresh"><path d="M2.2 1.9l.9.1C1.5 3.1.5 4.9.5 6.8c0 2.5 1.7 4.7 4.1 5.5l.7.2v-1.4L5 11c-1.9-.6-3.1-2.3-3.1-4.2 0-1.6.9-3.1 2.3-3.8L4 4.3l1.4.3.7-3.4L2.5.5l-.3 1.4zM12.5 6.8c0-2.6-1.8-4.9-4.4-5.6l-.7-.1v1.4l.3.1c2 .5 3.3 2.3 3.3 4.3 0 1.7-1 3.2-2.5 3.9l.2-1-1.3-.3-.7 3.4 3.6.7.3-1.4-1.2-.2c1.9-1.1 3.1-3 3.1-5.2z"/></symbol><symbol viewBox="0 0 58 56" id="saturn"><path d="M38.9 16.1c.7.7 1.3 1.5 1.8 2.3 4.5-5.1 7-8.9 6.2-9.7-.8-.8-4.6 1.5-9.9 5.8.7.5 1.4 1 1.9 1.6zM9.1 45.2c.8.8 4.7-1.6 10-5.8-.8-.6-1.6-1.2-2.3-1.9-.6-.6-1.1-1.2-1.6-1.9-4.4 5-6.9 8.8-6.1 9.6zM.3 54.7c-1.8-1.9 4-10.5 13.8-21.1-2.9-5.8-1.8-13.1 3.1-17.9 5-4.8 12.3-5.5 18-2.4C46.2 4 55.1-1.5 56.9.4c2.4 2.4-8.4 16.6-24 31.6C17.2 47 2.7 57.2.3 54.7zM35 34.2c2.9-2.8 5.7-5.6 8.2-8.3.3 4.3-1.3 8.7-4.7 12-3.4 3.2-7.8 4.6-12.2 4.2 2.8-2.5 5.7-5.1 8.7-7.9z"/></symbol><symbol viewBox="0 0 20 18" id="share"><path d="M18 6.8V16H1.5V6.8H0v10.7h19.5V6.8z"/><path d="M9 3.6v7.9h1.5V3.6l2.3 2.2 1-1.1-4-4-4.1 4 1 1.1z"/></symbol><symbol viewBox="0 0 19 18" id="star"><path d="M9.5 3.9l1.3 2.6.5.9 1 .2 2.9.4-2.1 2-.8.7.2 1 .5 2.8-2.6-1.3-.9-.5-.9.5L6 14.6l.5-2.8.2-1-.8-.8-2.1-2 2.9-.4 1-.2.5-.9 1.3-2.6m0-3.5c-.3 0-.6.2-.9.7L6.4 5.6l-4.9.7C.4 6.5.2 7.2 1 8l3.6 3.5-.8 4.9c-.1.8.2 1.3.7 1.3.2 0 .4-.1.7-.2l4.4-2.3 4.4 2.3c.3.1.5.2.7.2.5 0 .8-.5.7-1.3l-.8-4.9L18 8c.8-.8.5-1.5-.5-1.7l-4.9-.7-2.2-4.4c-.3-.5-.6-.8-.9-.8z"/></symbol><symbol viewBox="0 0 12 12" id="times"><path d="M12 1.4L10.6 0 6 4.6 1.4 0 0 1.4 4.6 6 0 10.6 1.4 12 6 7.4l4.6 4.6 1.4-1.4L7.4 6z"/></symbol><symbol viewBox="0 0 26 26" id="times-thin"><path d="M25.5 1.6L24.4.5 13 11.9 1.6.5.5 1.6 11.9 13 .5 24.4l1.1 1.1L13 14.1l11.4 11.4 1.1-1.1L14.1 13z"/></symbol><symbol viewBox="0 0 17 13" id="twitter"><path d="M14.4 2.1c.7-.4 1.2-1.1 1.5-1.8-.6.4-1.4.7-2.1.8C13.2.5 12.3 0 11.4 0 9.6 0 8.2 1.5 8.2 3.3c0 .3 0 .5.1.8C5.6 3.9 3.2 2.5 1.6.6c-.3.5-.5 1.1-.5 1.6 0 1.2.6 2.2 1.5 2.8-.5 0-1.1-.2-1.5-.4 0 1.6 1.2 3 2.7 3.3h-.9c-.2 0-.4 0-.6-.1.4 1.3 1.7 2.3 3 2.3-1.1.9-2.6 1.4-4 1.4H.5c1.5.9 3.1 1.5 5 1.5 6 0 9.3-5 9.3-9.3v-.4c.7-.6 1.2-1.1 1.7-1.7-.8.2-1.4.4-2.1.5z"/></symbol><symbol viewBox="0 0 23 18" id="upload"><path d="M18.8 5.2C17.8 2.1 15 0 11.7 0 9.4 0 7.3 1 5.9 2.7 2.5 3.1 0 5.7 0 8.8 0 12.2 2.8 15 6.2 15v-2C3.9 13 2 11.1 2 8.8c0-2.2 1.9-4 4.5-4.1H7l.3-.4C8.3 2.8 9.9 2 11.7 2c2.6 0 4.8 1.8 5.3 4.3l.1.7.7.1c2 .2 3.1 1.2 3.1 2.9s-1.4 3-3 3h-2.2v2H18c2.8 0 5-2.2 5-5 0-2.5-1.6-4.3-4.2-4.8z"/><path d="M7.4 11.1l1.2 1.6 1.9-1.6V18h2v-6.8l1.9 1.6 1.2-1.6-4.2-3.5z"/></symbol><symbol id="user" viewBox="0 0 18 20"><style>.bvst0{fill:#fafafa}</style><title>Group 7</title><path class="bvst0" d="M12.1 10.8c1.6-1 2.6-2.8 2.6-4.8 0-3.2-2.6-5.8-5.8-5.8C5.8.3 3.3 2.8 3.3 6c0 2 1.1 3.8 2.6 4.8C2.6 12.1.3 15.2.3 19c0 .4.3.8.8.8s.8-.3.8-.8c0-4 3.3-7.3 7.3-7.3s7.3 3.3 7.3 7.3c0 .4.3.8.8.8s.8-.3.8-.8c-.3-3.7-2.7-6.9-6-8.2zM4.8 6c0-2.3 1.9-4.3 4.3-4.3 2.3 0 4.3 1.9 4.3 4.3s-1.9 4.3-4.3 4.3-4.3-2-4.3-4.3z"/></symbol><symbol viewBox="0 0 20 11" id="vk"><path d="M19.5 9.9c0-.1 0-.1-.1-.1-.3-.6-1-1.3-1.9-2.2l-.8-.8c-.2-.3-.3-.5-.1-.8.1-.2.4-.6.9-1.3.3-.4.5-.6.7-.9 1.2-1.5 1.7-2.5 1.5-3l-.1-.1c0-.1-.1-.1-.3-.2-.2-.1-.4-.1-.6 0h-2.9-.4l-.1.1c0 .1-.1.1-.1.2-.3.8-.7 1.6-1.1 2.3-.2.4-.5.8-.7 1.1-.2.3-.4.5-.5.7-.1.1-.3.3-.4.3-.1.1-.2.1-.3.1H12c-.1-.1-.2-.1-.2-.2-.1-.1-.1-.2-.1-.4v-.4-.5-.4-.8-.7-.6-.5c0-.1-.1-.2-.1-.3 0-.1-.1-.2-.2-.2-.1-.1-.2-.1-.3-.1-.5-.1-.9-.2-1.5-.2-1.2 0-2 .1-2.4.2l-.3.3c-.2.2-.2.3-.1.3.4 0 .7.2.9.4l.1.1c0 .1.1.2.1.5 0 .2.1.5.1.7v1.3c0 .3-.1.6-.1.8 0 .2-.1.4-.1.5l-.2.2-.1.1c-.1 0-.2.1-.3.1-.1 0-.2 0-.3-.1-.1-.2-.2-.4-.4-.5-.1-.2-.3-.4-.5-.7-.2-.3-.4-.6-.6-1l-.1-.4c-.1-.1-.2-.4-.4-.8-.2-.3-.3-.7-.5-1 0-.2-.1-.3-.2-.3h-.1S4 .6 3.9.6 3.7.5 3.7.5H1C.7.5.5.6.4.7V1c0 .1 0 .2.1.3.3.8.8 1.7 1.2 2.6.5.9.9 1.6 1.3 2.1.3.5.7 1 1.1 1.5.3.5.5.8.6 1 .2.1.3.2.3.3l.3.2c.1.2.4.4.7.6.3.2.7.4 1 .7.4.2.8.4 1.3.5.5.1 1 .2 1.5.2H11c.2 0 .4-.1.5-.2v-.1s.1-.1.1-.2v-.3c0-.3 0-.5.1-.8.1-.2.1-.4.2-.5.1-.1.1-.2.2-.3.1-.1.1-.1.2-.1h.1c.2-.1.3 0 .6.2l.6.6c.2.2.4.5.7.8.3.3.5.5.7.6l.2.1c.1.1.3.2.5.2h3.1c.3 0 .5 0 .6-.1l.3-.3v-.3c-.1-.2-.1-.3-.2-.4z"/></symbol></svg>